# xmcd CD database file
#
# Track frame offsets:
#	150
#	9610
#	18968
#	33739
#	43306
#	54036
#	61864
#	88758
#	96363
#	102372
#	116179
#	126051
#	135007
#
# Disc length: 1913 seconds
#
# Revision: 0
# Processed by: cddbd v1.5.2PL0 Copyright (c) Steve Scherf et al.
# Submitted via: CDex 1.70beta2
#
DISCID=a607770d
DTITLE=Linda Ross - Deja Vu
DYEAR=2001
DGENRE=Jazz
TTITLE0=Deep Purple
TTITLE1=Stardust
TTITLE2=Someday - You Made Me Love You
TTITLE3=Dancing In The Dark - The Very Thought Of You
TTITLE4=Ain't Misbehavin'
TTITLE5=Tea For Two
TTITLE6=My Fair Lady (Medley)
TTITLE7=I Don't Know Why
TTITLE8=Smoke Gets In Your Eyes
TTITLE9=Make Believe (Medley)
TTITLE10=Over The Rainbow
TTITLE11=As Time Goes By
TTITLE12=My Buddy - La Vie En Rose
EXTD=YEAR: 2001
EXTT0=
EXTT1=
EXTT2=
EXTT3=
EXTT4=
EXTT5=
EXTT6=
EXTT7=
EXTT8=
EXTT9=
EXTT10=
EXTT11=
EXTT12=
PLAYORDER=
